<mxfile host="Electron" modified="2023-11-22T08:30:32.226Z" agent="Mozilla/5.0 (Windows NT 10.0; Win64; x64) AppleWebKit/537.36 (KHTML, like Gecko) draw.io/21.7.5 Chrome/114.0.5735.289 Electron/25.8.1 Safari/537.36" etag="qBEenboGomyPU01iGyJ4" version="21.7.5" type="device">
  <diagram name="Page-1" id="f6jfhzUsneAoFCPYi3nQ">
    <mxGraphModel dx="724" dy="428" grid="1" gridSize="10" guides="1" tooltips="1" connect="1" arrows="1" fold="1" page="1" pageScale="1" pageWidth="850" pageHeight="1100" math="0" shadow="0">
      <root>
        <mxCell id="0" />
        <mxCell id="1" parent="0" />
        <mxCell id="-T557ddgfVeO_1EBiRb3-45" value="" style="rounded=1;whiteSpace=wrap;html=1;fillColor=#9C9C9C;dashed=1;dashPattern=12 12;" vertex="1" parent="1">
          <mxGeometry x="130" y="550" width="637" height="370" as="geometry" />
        </mxCell>
        <mxCell id="-T557ddgfVeO_1EBiRb3-5" style="edgeStyle=orthogonalEdgeStyle;rounded=0;orthogonalLoop=1;jettySize=auto;html=1;entryX=0.5;entryY=0;entryDx=0;entryDy=0;" edge="1" parent="1" source="-T557ddgfVeO_1EBiRb3-1" target="-T557ddgfVeO_1EBiRb3-4">
          <mxGeometry relative="1" as="geometry" />
        </mxCell>
        <mxCell id="-T557ddgfVeO_1EBiRb3-1" value="&lt;b&gt;Process starts&lt;/b&gt;" style="rounded=1;whiteSpace=wrap;html=1;fillColor=#e1d5e7;strokeColor=#9673a6;fontColor=#000000;arcSize=50;fontFamily=Inter;" vertex="1" parent="1">
          <mxGeometry x="50" y="40" width="120" height="40" as="geometry" />
        </mxCell>
        <mxCell id="-T557ddgfVeO_1EBiRb3-3" value="&lt;b&gt;Process ends&lt;/b&gt;" style="rounded=1;whiteSpace=wrap;html=1;fillColor=#e1d5e7;strokeColor=#9673a6;fontColor=#000000;arcSize=50;fontFamily=Inter;" vertex="1" parent="1">
          <mxGeometry x="50" y="320" width="120" height="40" as="geometry" />
        </mxCell>
        <mxCell id="-T557ddgfVeO_1EBiRb3-7" style="edgeStyle=orthogonalEdgeStyle;rounded=0;orthogonalLoop=1;jettySize=auto;html=1;entryX=0.5;entryY=0;entryDx=0;entryDy=0;" edge="1" parent="1" source="-T557ddgfVeO_1EBiRb3-4" target="-T557ddgfVeO_1EBiRb3-6">
          <mxGeometry relative="1" as="geometry" />
        </mxCell>
        <mxCell id="-T557ddgfVeO_1EBiRb3-4" value="Initialize tokio runtime" style="rounded=0;whiteSpace=wrap;html=1;fillColor=#f5f5f5;fontColor=#333333;strokeColor=#666666;fontFamily=Inter;fontStyle=1" vertex="1" parent="1">
          <mxGeometry x="30" y="110" width="160" height="30" as="geometry" />
        </mxCell>
        <mxCell id="-T557ddgfVeO_1EBiRb3-8" style="edgeStyle=orthogonalEdgeStyle;rounded=0;orthogonalLoop=1;jettySize=auto;html=1;entryX=0.5;entryY=0;entryDx=0;entryDy=0;" edge="1" parent="1" source="-T557ddgfVeO_1EBiRb3-6" target="-T557ddgfVeO_1EBiRb3-3">
          <mxGeometry relative="1" as="geometry" />
        </mxCell>
        <mxCell id="-T557ddgfVeO_1EBiRb3-10" style="edgeStyle=orthogonalEdgeStyle;rounded=0;orthogonalLoop=1;jettySize=auto;html=1;entryX=0;entryY=0.5;entryDx=0;entryDy=0;" edge="1" parent="1" source="-T557ddgfVeO_1EBiRb3-6" target="-T557ddgfVeO_1EBiRb3-9">
          <mxGeometry relative="1" as="geometry" />
        </mxCell>
        <mxCell id="-T557ddgfVeO_1EBiRb3-6" value="Block on the current thread" style="rounded=0;whiteSpace=wrap;html=1;fillColor=#f5f5f5;fontColor=#333333;strokeColor=#666666;fontFamily=Inter;fontStyle=1" vertex="1" parent="1">
          <mxGeometry x="50" y="170" width="120" height="50" as="geometry" />
        </mxCell>
        <mxCell id="-T557ddgfVeO_1EBiRb3-13" style="edgeStyle=orthogonalEdgeStyle;rounded=0;orthogonalLoop=1;jettySize=auto;html=1;entryX=0.5;entryY=0;entryDx=0;entryDy=0;" edge="1" parent="1" source="-T557ddgfVeO_1EBiRb3-9" target="-T557ddgfVeO_1EBiRb3-11">
          <mxGeometry relative="1" as="geometry" />
        </mxCell>
        <mxCell id="-T557ddgfVeO_1EBiRb3-9" value="Load the server configuration" style="rounded=0;whiteSpace=wrap;html=1;fillColor=#f5f5f5;fontColor=#333333;strokeColor=#666666;fontFamily=Inter;fontStyle=1" vertex="1" parent="1">
          <mxGeometry x="230" y="175" width="130" height="40" as="geometry" />
        </mxCell>
        <mxCell id="-T557ddgfVeO_1EBiRb3-12" value="Yes" style="edgeStyle=orthogonalEdgeStyle;rounded=0;orthogonalLoop=1;jettySize=auto;html=1;entryX=0.5;entryY=0;entryDx=0;entryDy=0;" edge="1" parent="1" source="-T557ddgfVeO_1EBiRb3-11" target="-T557ddgfVeO_1EBiRb3-3">
          <mxGeometry relative="1" as="geometry" />
        </mxCell>
        <mxCell id="-T557ddgfVeO_1EBiRb3-15" value="No" style="edgeStyle=orthogonalEdgeStyle;rounded=0;orthogonalLoop=1;jettySize=auto;html=1;entryX=0.5;entryY=0;entryDx=0;entryDy=0;" edge="1" parent="1" source="-T557ddgfVeO_1EBiRb3-11" target="-T557ddgfVeO_1EBiRb3-14">
          <mxGeometry relative="1" as="geometry" />
        </mxCell>
        <mxCell id="-T557ddgfVeO_1EBiRb3-11" value="Does it fail?" style="rhombus;whiteSpace=wrap;html=1;fontFamily=Inter;fontStyle=1;fillColor=#ffe6cc;strokeColor=#d79b00;" vertex="1" parent="1">
          <mxGeometry x="230" y="240" width="130" height="40" as="geometry" />
        </mxCell>
        <mxCell id="-T557ddgfVeO_1EBiRb3-18" style="edgeStyle=orthogonalEdgeStyle;rounded=0;orthogonalLoop=1;jettySize=auto;html=1;entryX=0.5;entryY=0;entryDx=0;entryDy=0;" edge="1" parent="1" source="-T557ddgfVeO_1EBiRb3-14" target="-T557ddgfVeO_1EBiRb3-17">
          <mxGeometry relative="1" as="geometry" />
        </mxCell>
        <mxCell id="-T557ddgfVeO_1EBiRb3-14" value="Load the web server state" style="rounded=0;whiteSpace=wrap;html=1;fillColor=#f5f5f5;fontColor=#333333;strokeColor=#666666;fontFamily=Inter;fontStyle=1" vertex="1" parent="1">
          <mxGeometry x="240" y="320" width="110" height="40" as="geometry" />
        </mxCell>
        <mxCell id="-T557ddgfVeO_1EBiRb3-21" style="edgeStyle=orthogonalEdgeStyle;rounded=0;orthogonalLoop=1;jettySize=auto;html=1;entryX=0.5;entryY=0;entryDx=0;entryDy=0;" edge="1" parent="1" source="-T557ddgfVeO_1EBiRb3-17" target="-T557ddgfVeO_1EBiRb3-20">
          <mxGeometry relative="1" as="geometry" />
        </mxCell>
        <mxCell id="-T557ddgfVeO_1EBiRb3-17" value="Initialize&lt;br&gt;HTTP server" style="rounded=0;whiteSpace=wrap;html=1;fillColor=#f5f5f5;fontColor=#333333;strokeColor=#666666;fontFamily=Inter;fontStyle=1" vertex="1" parent="1">
          <mxGeometry x="240" y="390" width="110" height="40" as="geometry" />
        </mxCell>
        <mxCell id="-T557ddgfVeO_1EBiRb3-25" style="edgeStyle=orthogonalEdgeStyle;rounded=0;orthogonalLoop=1;jettySize=auto;html=1;entryX=0.5;entryY=1;entryDx=0;entryDy=0;" edge="1" parent="1" source="-T557ddgfVeO_1EBiRb3-19" target="-T557ddgfVeO_1EBiRb3-3">
          <mxGeometry relative="1" as="geometry" />
        </mxCell>
        <mxCell id="-T557ddgfVeO_1EBiRb3-19" value="Wait either futures will die" style="rounded=0;whiteSpace=wrap;html=1;fillColor=#f5f5f5;fontColor=#333333;strokeColor=#666666;fontFamily=Inter;fontStyle=1" vertex="1" parent="1">
          <mxGeometry x="55" y="410" width="110" height="40" as="geometry" />
        </mxCell>
        <mxCell id="-T557ddgfVeO_1EBiRb3-28" style="edgeStyle=orthogonalEdgeStyle;rounded=0;orthogonalLoop=1;jettySize=auto;html=1;entryX=0.5;entryY=0;entryDx=0;entryDy=0;" edge="1" parent="1" source="-T557ddgfVeO_1EBiRb3-20" target="-T557ddgfVeO_1EBiRb3-27">
          <mxGeometry relative="1" as="geometry" />
        </mxCell>
        <mxCell id="-T557ddgfVeO_1EBiRb3-20" value="Load the file watcher to watch configuration&lt;br&gt;files go change" style="rounded=0;whiteSpace=wrap;html=1;fillColor=#f5f5f5;fontColor=#333333;strokeColor=#666666;fontFamily=Inter;fontStyle=1" vertex="1" parent="1">
          <mxGeometry x="210" y="460" width="170" height="60" as="geometry" />
        </mxCell>
        <mxCell id="-T557ddgfVeO_1EBiRb3-22" value="" style="endArrow=classic;html=1;rounded=0;exitX=0;exitY=0.5;exitDx=0;exitDy=0;entryX=1;entryY=0.5;entryDx=0;entryDy=0;" edge="1" parent="1" source="-T557ddgfVeO_1EBiRb3-17" target="-T557ddgfVeO_1EBiRb3-19">
          <mxGeometry width="50" height="50" relative="1" as="geometry">
            <mxPoint x="420" y="410" as="sourcePoint" />
            <mxPoint x="470" y="360" as="targetPoint" />
          </mxGeometry>
        </mxCell>
        <mxCell id="-T557ddgfVeO_1EBiRb3-23" value="" style="endArrow=classic;html=1;rounded=0;entryX=1;entryY=0.5;entryDx=0;entryDy=0;exitX=0;exitY=0.5;exitDx=0;exitDy=0;" edge="1" parent="1" source="-T557ddgfVeO_1EBiRb3-20" target="-T557ddgfVeO_1EBiRb3-19">
          <mxGeometry width="50" height="50" relative="1" as="geometry">
            <mxPoint x="380" y="490" as="sourcePoint" />
            <mxPoint x="435" y="430" as="targetPoint" />
          </mxGeometry>
        </mxCell>
        <mxCell id="-T557ddgfVeO_1EBiRb3-26" value="" style="endArrow=classic;html=1;rounded=0;exitX=1;exitY=0.5;exitDx=0;exitDy=0;entryX=1;entryY=0.5;entryDx=0;entryDy=0;fillColor=#d5e8d4;strokeColor=#82b366;" edge="1" parent="1" source="-T557ddgfVeO_1EBiRb3-9" target="-T557ddgfVeO_1EBiRb3-20">
          <mxGeometry width="50" height="50" relative="1" as="geometry">
            <mxPoint x="410" y="250" as="sourcePoint" />
            <mxPoint x="460" y="200" as="targetPoint" />
            <Array as="points">
              <mxPoint x="430" y="195" />
              <mxPoint x="430" y="490" />
            </Array>
          </mxGeometry>
        </mxCell>
        <mxCell id="-T557ddgfVeO_1EBiRb3-30" style="edgeStyle=orthogonalEdgeStyle;rounded=0;orthogonalLoop=1;jettySize=auto;html=1;entryX=0;entryY=0.5;entryDx=0;entryDy=0;" edge="1" parent="1" source="-T557ddgfVeO_1EBiRb3-27" target="-T557ddgfVeO_1EBiRb3-29">
          <mxGeometry relative="1" as="geometry" />
        </mxCell>
        <mxCell id="-T557ddgfVeO_1EBiRb3-27" value="Polling for file changes" style="rounded=0;whiteSpace=wrap;html=1;fillColor=#fff2cc;strokeColor=#d6b656;fontFamily=Inter;fontStyle=1" vertex="1" parent="1">
          <mxGeometry x="242.5" y="580" width="105" height="40" as="geometry" />
        </mxCell>
        <mxCell id="-T557ddgfVeO_1EBiRb3-32" style="edgeStyle=orthogonalEdgeStyle;rounded=0;orthogonalLoop=1;jettySize=auto;html=1;entryX=0.5;entryY=0;entryDx=0;entryDy=0;" edge="1" parent="1" source="-T557ddgfVeO_1EBiRb3-29" target="-T557ddgfVeO_1EBiRb3-31">
          <mxGeometry relative="1" as="geometry" />
        </mxCell>
        <mxCell id="-T557ddgfVeO_1EBiRb3-29" value="Attempt to reload the&lt;br&gt;configuration" style="rounded=0;whiteSpace=wrap;html=1;fillColor=#f5f5f5;fontColor=#333333;strokeColor=#666666;fontFamily=Inter;fontStyle=1" vertex="1" parent="1">
          <mxGeometry x="380" y="580" width="150" height="40" as="geometry" />
        </mxCell>
        <mxCell id="-T557ddgfVeO_1EBiRb3-34" value="Yes" style="edgeStyle=orthogonalEdgeStyle;rounded=0;orthogonalLoop=1;jettySize=auto;html=1;entryX=0;entryY=0.5;entryDx=0;entryDy=0;fillColor=#d5e8d4;strokeColor=#82b366;" edge="1" parent="1" source="-T557ddgfVeO_1EBiRb3-31" target="-T557ddgfVeO_1EBiRb3-33">
          <mxGeometry relative="1" as="geometry" />
        </mxCell>
        <mxCell id="-T557ddgfVeO_1EBiRb3-37" value="No" style="edgeStyle=orthogonalEdgeStyle;rounded=0;orthogonalLoop=1;jettySize=auto;html=1;entryX=0.5;entryY=0;entryDx=0;entryDy=0;" edge="1" parent="1" source="-T557ddgfVeO_1EBiRb3-31" target="-T557ddgfVeO_1EBiRb3-36">
          <mxGeometry relative="1" as="geometry" />
        </mxCell>
        <mxCell id="-T557ddgfVeO_1EBiRb3-31" value="Does it fail?" style="rhombus;whiteSpace=wrap;html=1;fontFamily=Inter;fontStyle=1;fillColor=#ffe6cc;strokeColor=#d79b00;" vertex="1" parent="1">
          <mxGeometry x="390" y="650" width="130" height="40" as="geometry" />
        </mxCell>
        <mxCell id="-T557ddgfVeO_1EBiRb3-35" style="edgeStyle=orthogonalEdgeStyle;rounded=0;orthogonalLoop=1;jettySize=auto;html=1;entryX=0.5;entryY=0;entryDx=0;entryDy=0;" edge="1" parent="1" source="-T557ddgfVeO_1EBiRb3-33" target="-T557ddgfVeO_1EBiRb3-27">
          <mxGeometry relative="1" as="geometry">
            <Array as="points">
              <mxPoint x="645" y="540" />
              <mxPoint x="295" y="540" />
            </Array>
          </mxGeometry>
        </mxCell>
        <mxCell id="-T557ddgfVeO_1EBiRb3-33" value="Go back to the last&lt;br&gt;good known server&lt;br&gt;configuration&lt;br&gt;(no changes needed)" style="rounded=0;whiteSpace=wrap;html=1;fillColor=#f5f5f5;fontColor=#333333;strokeColor=#666666;fontFamily=Inter;fontStyle=1" vertex="1" parent="1">
          <mxGeometry x="570" y="635" width="150" height="70" as="geometry" />
        </mxCell>
        <mxCell id="-T557ddgfVeO_1EBiRb3-39" style="edgeStyle=orthogonalEdgeStyle;rounded=0;orthogonalLoop=1;jettySize=auto;html=1;entryX=0.5;entryY=0;entryDx=0;entryDy=0;" edge="1" parent="1" source="-T557ddgfVeO_1EBiRb3-36" target="-T557ddgfVeO_1EBiRb3-38">
          <mxGeometry relative="1" as="geometry" />
        </mxCell>
        <mxCell id="-T557ddgfVeO_1EBiRb3-36" value="Initialize the web&lt;br&gt;server state again&lt;br&gt;based on the new&lt;br&gt;configuration" style="rounded=0;whiteSpace=wrap;html=1;fillColor=#f5f5f5;fontColor=#333333;strokeColor=#666666;fontFamily=Inter;fontStyle=1" vertex="1" parent="1">
          <mxGeometry x="390" y="730" width="130" height="70" as="geometry" />
        </mxCell>
        <mxCell id="-T557ddgfVeO_1EBiRb3-41" value="Yes" style="edgeStyle=orthogonalEdgeStyle;rounded=0;orthogonalLoop=1;jettySize=auto;html=1;entryX=0.5;entryY=1;entryDx=0;entryDy=0;" edge="1" parent="1" source="-T557ddgfVeO_1EBiRb3-38" target="-T557ddgfVeO_1EBiRb3-33">
          <mxGeometry relative="1" as="geometry" />
        </mxCell>
        <mxCell id="-T557ddgfVeO_1EBiRb3-43" value="No" style="edgeStyle=orthogonalEdgeStyle;rounded=0;orthogonalLoop=1;jettySize=auto;html=1;entryX=0.5;entryY=1;entryDx=0;entryDy=0;" edge="1" parent="1" source="-T557ddgfVeO_1EBiRb3-38" target="-T557ddgfVeO_1EBiRb3-42">
          <mxGeometry x="0.1795" relative="1" as="geometry">
            <mxPoint as="offset" />
          </mxGeometry>
        </mxCell>
        <mxCell id="-T557ddgfVeO_1EBiRb3-38" value="Does it fail?" style="rhombus;whiteSpace=wrap;html=1;fontFamily=Inter;fontStyle=1;fillColor=#ffe6cc;strokeColor=#d79b00;" vertex="1" parent="1">
          <mxGeometry x="390" y="840" width="130" height="40" as="geometry" />
        </mxCell>
        <mxCell id="-T557ddgfVeO_1EBiRb3-40" value="Also check for any differences in values before performing something like initializing a database connection." style="text;html=1;strokeColor=none;fillColor=#9C9C9C;align=left;verticalAlign=middle;whiteSpace=wrap;rounded=0;fontStyle=2;fontFamily=Inter;" vertex="1" parent="1">
          <mxGeometry x="526" y="750" width="110" height="70" as="geometry" />
        </mxCell>
        <mxCell id="-T557ddgfVeO_1EBiRb3-44" style="edgeStyle=orthogonalEdgeStyle;rounded=0;orthogonalLoop=1;jettySize=auto;html=1;entryX=0.5;entryY=1;entryDx=0;entryDy=0;" edge="1" parent="1" source="-T557ddgfVeO_1EBiRb3-42" target="-T557ddgfVeO_1EBiRb3-27">
          <mxGeometry relative="1" as="geometry" />
        </mxCell>
        <mxCell id="-T557ddgfVeO_1EBiRb3-42" value="Override changes to the current config and the web server state" style="rounded=0;whiteSpace=wrap;html=1;fillColor=#f5f5f5;fontColor=#333333;strokeColor=#666666;fontFamily=Inter;fontStyle=1" vertex="1" parent="1">
          <mxGeometry x="222.5" y="690" width="145" height="70" as="geometry" />
        </mxCell>
      </root>
    </mxGraphModel>
  </diagram>
</mxfile>
